<?xml version="1.0" standalone="no"?>
<!DOCTYPE svg PUBLIC "-//W3C//DTD SVG 20010904//EN"
 "http://www.w3.org/TR/2001/REC-SVG-20010904/DTD/svg10.dtd">
<svg version="1.0" xmlns="http://www.w3.org/2000/svg"
 width="512.000000pt" height="512.000000pt" viewBox="0 0 512.000000 512.000000"
 preserveAspectRatio="xMidYMid meet">
<metadata>
Created by potrace 1.11, written by Peter Selinger 2001-2013
</metadata>
<g transform="translate(0.000000,512.000000) scale(0.100000,-0.100000)"
fill="#000000" stroke="none">
<path d="M2435 5113 c-193 -33 -322 -83 -458 -175 -133 -90 -267 -242 -337
-383 -19 -39 -36 -72 -37 -73 -1 -2 -28 12 -60 31 -300 175 -684 160 -956 -37
-148 -107 -246 -231 -315 -396 -32 -79 -36 -92 -54 -200 -13 -80 -4 -265 17
-341 40 -150 120 -292 221 -395 147 -150 305 -229 532 -268 46 -8 86 -17 90
-21 4 -4 9 -544 12 -1200 l5 -1194 29 -30 c17 -17 38 -31 48 -31 22 0 20 16
22 -165 3 -169 14 -205 69 -225 20 -7 455 -10 1299 -10 1403 0 1322 -4 1349
62 8 20 14 86 15 177 2 176 0 161 22 161 21 1 56 28 71 57 8 16 11 352 11
1201 0 1077 1 1181 16 1193 9 7 63 21 120 31 342 57 604 286 709 618 48 151
46 377 -6 529 -73 213 -226 395 -420 500 -136 73 -235 100 -391 107 -86 3
-121 0 -227 -21 -54 -10 -131 -41 -220 -86 -52 -27 -95 -48 -95 -46 -1 1 -16
31 -34 66 -52 102 -101 171 -177 249 -157 164 -351 268 -571 305 -74 13 -250
19 -299 10z"/>
</g>
</svg>
